# Blender v2.79 (sub 0) OBJ File: 'castleBoss.blend'
# www.blender.org
o Cube.010
v -0.041405 1.117210 0.108509
v -0.041405 1.117210 -0.108509
v 0.175613 1.117210 -0.108509
v 0.175613 1.117210 0.108509
v -0.041405 0.900192 0.108509
v -0.041405 0.900192 -0.108509
v 0.175613 0.900192 -0.108509
v 0.175613 0.900192 0.108509
v -0.041405 1.117210 0.108509
v -0.041405 1.117210 0.108509
v -0.041405 1.117210 -0.108509
v -0.041405 1.117210 -0.108509
v 0.175613 1.117210 0.108509
v 0.175613 1.117210 0.108509
v -0.041405 0.900192 0.108509
v -0.041405 0.900192 0.108509
v 0.175613 1.117210 -0.108509
v 0.175613 1.117210 -0.108509
v -0.041405 0.900192 -0.108509
v -0.041405 0.900192 -0.108509
v 0.175613 0.900192 -0.108509
v 0.175613 0.900192 -0.108509
v 0.175613 0.900192 0.108509
v 0.175613 0.900192 0.108509
vt 0.000000 1.000000
vt 1.000000 0.000000
vt 0.000000 0.000000
vt 0.000000 1.000000
vt 1.000000 0.000000
vt 0.000000 0.000000
vt 0.000000 1.000000
vt 1.000000 0.000000
vt 0.000000 0.000000
vt 0.000000 1.000000
vt 1.000000 0.000000
vt 0.000000 0.000000
vt 0.000000 1.000000
vt 1.000000 0.000000
vt 0.000000 0.000000
vt 0.000000 1.000000
vt 1.000000 0.000000
vt 0.000000 0.000000
vt 1.000000 1.000000
vt 1.000000 1.000000
vt 1.000000 1.000000
vt 1.000000 1.000000
vt 1.000000 1.000000
vt 1.000000 1.000000
vn 0.0000 1.0000 0.0000
vn 0.0000 -1.0000 0.0000
vn -1.0000 0.0000 0.0000
vn 0.0000 0.0000 -1.0000
vn 1.0000 0.0000 0.0000
vn 0.0000 0.0000 1.0000
s 1
f 13/1/1 11/2/1 9/3/1
f 20/4/2 24/5/2 16/6/2
f 12/7/3 15/8/3 10/9/3
f 18/10/4 6/11/4 2/12/4
f 14/13/5 7/14/5 3/15/5
f 8/16/6 1/17/6 5/18/6
f 13/1/1 17/19/1 11/2/1
f 20/4/2 22/20/2 24/5/2
f 12/7/3 19/21/3 15/8/3
f 18/10/4 21/22/4 6/11/4
f 14/13/5 23/23/5 7/14/5
f 8/16/6 4/24/6 1/17/6
