# Blender v2.79 (sub 0) OBJ File: ''
# www.blender.org
o Cube
v 0.363654 0.002165 -0.363654
v 0.363654 0.002165 0.363654
v -0.363654 0.002165 0.363654
v -0.363653 0.002165 -0.363654
v 0.363654 0.729472 -0.363653
v 0.363653 0.729472 0.363654
v -0.363654 0.729472 0.363653
v -0.363654 0.729472 -0.363654
v 0.363654 0.002165 -0.363654
v 0.363654 0.002165 -0.363654
v 0.363654 0.002165 0.363654
v 0.363654 0.002165 0.363654
v -0.363653 0.002165 -0.363654
v -0.363653 0.002165 -0.363654
v 0.363654 0.729472 -0.363653
v 0.363654 0.729472 -0.363653
v -0.363654 0.002165 0.363654
v -0.363654 0.002165 0.363654
v 0.363653 0.729472 0.363654
v 0.363653 0.729472 0.363654
v -0.363654 0.729472 0.363653
v -0.363654 0.729472 0.363653
v -0.363654 0.729472 -0.363654
v -0.363654 0.729472 -0.363654
vt 0.000000 0.000000
vt 1.000000 1.000000
vt 0.000000 1.000000
vt 1.000000 0.000000
vt 0.000000 1.000000
vt 0.000000 0.000000
vt 1.000000 0.000000
vt 0.000000 1.000000
vt 0.000000 0.000000
vt 1.000000 0.000000
vt 0.000000 1.000000
vt 0.000000 0.000000
vt 0.000000 0.000000
vt 1.000000 1.000000
vt 0.000000 1.000000
vt 1.000000 0.000000
vt 0.000000 1.000000
vt 0.000000 0.000000
vt 1.000000 0.000000
vt 1.000000 1.000000
vt 1.000000 1.000000
vt 1.000000 1.000000
vt 1.000000 0.000000
vt 1.000000 1.000000
vn 0.0000 -1.0000 0.0000
vn 0.0000 1.0000 0.0000
vn 1.0000 0.0000 0.0000
vn 0.0000 0.0000 1.0000
vn -1.0000 0.0000 0.0000
vn 0.0000 0.0000 -1.0000
s 1
f 9/1/1 17/2/1 13/3/1
f 24/4/2 20/5/2 16/6/2
f 15/7/3 12/8/3 10/9/3
f 6/10/4 18/11/4 2/12/4
f 3/13/5 23/14/5 14/15/5
f 1/16/6 8/17/6 5/18/6
f 9/1/1 11/19/1 17/2/1
f 24/4/2 22/20/2 20/5/2
f 15/7/3 19/21/3 12/8/3
f 6/10/4 21/22/4 18/11/4
f 3/13/5 7/23/5 23/14/5
f 1/16/6 4/24/6 8/17/6
