# Blender v2.79 (sub 0) OBJ File: 'test.blend'
# www.blender.org
o Cube.002
v 1.000000 0.044289 -3.006279
v 1.000000 0.044289 -1.006279
v -1.000000 0.044289 -1.006279
v -1.000000 0.044289 -3.006279
v 1.000000 2.044289 -3.006279
v 0.999999 2.044289 -1.006279
v -1.000000 2.044289 -1.006280
v -1.000000 2.044289 -3.006279
v 1.000000 0.044289 -1.000000
v 1.000000 0.044289 1.000000
v -1.000000 0.044289 1.000000
v -1.000000 0.044289 -1.000000
v 1.000000 2.044289 -1.000000
v 0.999999 2.044289 1.000001
v -1.000000 2.044289 1.000000
v -1.000000 2.044289 -1.000000
v 1.000000 2.058128 -1.000000
v 1.000000 2.058128 1.000000
v -1.000000 2.058128 1.000000
v -1.000000 2.058128 -1.000000
v 1.000000 4.058128 -1.000000
v 0.999999 4.058128 1.000001
v -1.000000 4.058128 1.000000
v -1.000000 4.058128 -1.000000
v 1.000000 0.044289 1.011842
v 1.000000 0.044289 3.011842
v -1.000000 0.044289 3.011842
v -1.000000 0.044289 1.011841
v 1.000000 2.044289 1.011842
v 0.999999 2.044289 3.011842
v -1.000000 2.044289 3.011841
v -1.000000 2.044289 1.011842
vt 0.000000 0.000000
vt 1.000000 1.000000
vt 0.000000 1.000000
vt 1.000000 0.000000
vt 0.000000 1.000000
vt 0.000000 0.000000
vt 1.000000 0.000000
vt 0.000000 1.000000
vt 1.000000 0.000000
vt 0.000000 1.000000
vt 0.000000 0.000000
vt 0.000000 0.000000
vt 1.000000 1.000000
vt 1.000000 0.000000
vt 0.000000 1.000000
vt 1.000000 0.000000
vt 1.000000 1.000000
vt 1.000000 1.000000
vt 1.000000 0.000000
vt 1.000000 1.000000
vt 0.000000 0.000000
vt 1.000000 1.000000
vt 0.000000 1.000000
vt 1.000000 0.000000
vt 0.000000 1.000000
vt 0.000000 0.000000
vt 1.000000 0.000000
vt 0.000000 1.000000
vt 1.000000 0.000000
vt 0.000000 1.000000
vt 0.000000 0.000000
vt 0.000000 0.000000
vt 1.000000 1.000000
vt 1.000000 0.000000
vt 0.000000 1.000000
vt 1.000000 0.000000
vt 1.000000 1.000000
vt 1.000000 1.000000
vt 1.000000 0.000000
vt 1.000000 1.000000
vt 0.000000 0.000000
vt 1.000000 1.000000
vt 0.000000 1.000000
vt 1.000000 0.000000
vt 0.000000 1.000000
vt 0.000000 0.000000
vt 1.000000 0.000000
vt 0.000000 1.000000
vt 1.000000 0.000000
vt 0.000000 1.000000
vt 0.000000 0.000000
vt 1.000000 0.000000
vt 0.000000 0.000000
vt 1.000000 0.000000
vt 0.000000 1.000000
vt 1.000000 0.000000
vt 1.000000 1.000000
vt 1.000000 1.000000
vt 1.000000 1.000000
vt 1.000000 1.000000
vt 1.000000 0.000000
vt 0.000000 1.000000
vt 0.000000 0.000000
vt 1.000000 0.000000
vt 0.000000 1.000000
vt 0.000000 0.000000
vt 1.000000 0.000000
vt 0.000000 1.000000
vt 1.000000 0.000000
vt 0.000000 1.000000
vt 0.000000 0.000000
vt 1.000000 0.000000
vt 0.000000 0.000000
vt 1.000000 0.000000
vt 0.000000 1.000000
vt 1.000000 1.000000
vt 1.000000 1.000000
vt 1.000000 1.000000
vt 1.000000 1.000000
vt 1.000000 1.000000
vn 0.0000 -1.0000 -0.0000
vn 0.0000 1.0000 0.0000
vn 1.0000 -0.0000 0.0000
vn 0.0000 -0.0000 1.0000
vn -1.0000 -0.0000 -0.0000
vn 0.0000 0.0000 -1.0000
s off
f 1/1/1 3/2/1 4/3/1
f 8/4/2 6/5/2 5/6/2
f 5/7/3 2/8/3 1/1/3
f 6/9/4 3/10/4 2/11/4
f 3/12/5 8/13/5 4/3/5
f 1/14/6 8/15/6 5/6/6
f 1/1/1 2/16/1 3/2/1
f 8/4/2 7/17/2 6/5/2
f 5/7/3 6/18/3 2/8/3
f 6/9/4 7/17/4 3/10/4
f 3/12/5 7/19/5 8/13/5
f 1/14/6 4/20/6 8/15/6
f 9/21/1 11/22/1 12/23/1
f 16/24/2 14/25/2 13/26/2
f 13/27/3 10/28/3 9/21/3
f 14/29/4 11/30/4 10/31/4
f 11/32/5 16/33/5 12/23/5
f 9/34/6 16/35/6 13/26/6
f 9/21/1 10/36/1 11/22/1
f 16/24/2 15/37/2 14/25/2
f 13/27/3 14/38/3 10/28/3
f 14/29/4 15/37/4 11/30/4
f 11/32/5 15/39/5 16/33/5
f 9/34/6 12/40/6 16/35/6
f 17/41/1 19/42/1 20/43/1
f 24/44/2 22/45/2 21/46/2
f 21/47/3 18/48/3 17/41/3
f 22/49/4 19/50/4 18/51/4
f 23/52/5 20/43/5 19/53/5
f 17/54/6 24/55/6 21/46/6
f 17/41/1 18/56/1 19/42/1
f 24/44/2 23/57/2 22/45/2
f 21/47/3 22/58/3 18/48/3
f 22/49/4 23/57/4 19/50/4
f 23/52/5 24/59/5 20/43/5
f 17/54/6 20/60/6 24/55/6
f 26/61/1 28/62/1 25/63/1
f 32/64/2 30/65/2 29/66/2
f 29/67/3 26/68/3 25/63/3
f 30/69/4 27/70/4 26/71/4
f 31/72/5 28/62/5 27/73/5
f 25/74/6 32/75/6 29/66/6
f 26/61/1 27/76/1 28/62/1
f 32/64/2 31/77/2 30/65/2
f 29/67/3 30/78/3 26/68/3
f 30/69/4 31/77/4 27/70/4
f 31/72/5 32/79/5 28/62/5
f 25/74/6 28/80/6 32/75/6
